<svg width="60" height="59" viewBox="0 0 60 59" fill="none" xmlns="http://www.w3.org/2000/svg">
<path d="M50.1554 27.8961L32.2952 27.8651C32.055 27.8651 31.8609 27.6742 31.8609 27.438L31.8358 9.67319C31.8358 9.43698 32.0299 9.24614 32.2701 9.24614C32.2865 9.24614 32.3016 9.24704 32.318 9.24838V9.24749C37.1661 9.78816 41.499 11.9535 44.7384 15.1734C47.979 18.3932 50.1277 22.6677 50.609 27.427C50.6332 27.6618 50.4574 27.8711 50.2186 27.8949C50.198 27.8972 50.177 27.8972 50.1565 27.8972L50.1554 27.8961ZM20.8849 40.8763L21.7969 38.6552L19.9615 38.6305L20.8845 40.8763L20.8849 40.8763ZM22.6011 38.9848L21.2886 42.179C21.2461 42.2841 21.1607 42.3721 21.0465 42.417C20.8228 42.505 20.5698 42.3986 20.4803 42.179L19.017 38.6188L16.6067 38.5864C16.3665 38.5833 16.1747 38.3902 16.177 38.154C16.1802 37.9178 16.3765 37.7292 16.6168 37.7314L18.6636 37.7593L17.8672 35.8224C17.8388 35.7654 17.8224 35.7012 17.8224 35.6325C17.8224 35.3954 18.0179 35.2032 18.259 35.2032H23.5094V35.2041C23.5628 35.2041 23.6185 35.2139 23.671 35.235C23.8948 35.3231 24.0026 35.5718 23.9131 35.7919L23.0796 37.8199L24.9881 37.8455C25.2283 37.8486 25.4201 38.0417 25.4178 38.2779C25.4146 38.5142 25.2182 38.7028 24.978 38.7005L22.7302 38.6704L22.6005 38.9857L22.6011 38.9848ZM22.1463 37.8055L22.8632 36.0609H18.9044L19.6072 37.7714L22.1454 37.8055L22.1463 37.8055ZM40.0252 35.4717L42.6506 41.8592C42.7401 42.0792 42.6319 42.328 42.4085 42.416C42.3551 42.4376 42.3003 42.447 42.2469 42.447V42.4479H36.9965C36.7554 42.4479 36.5599 42.2557 36.5599 42.0186C36.5599 41.9499 36.5764 41.8857 36.6047 41.8286L39.2169 35.4712C39.3064 35.2512 39.5594 35.1452 39.7832 35.2332C39.8978 35.2781 39.9827 35.3661 40.0252 35.4712L40.0252 35.4717ZM40.5293 38.9834L39.6205 36.7731L37.6413 41.5884H41.6002L40.5297 38.9834H40.5293ZM21.2873 17.0191L22.7299 20.5289L24.9777 20.4989C25.218 20.4957 25.4152 20.6857 25.4175 20.9214C25.4207 21.1576 25.2275 21.3516 24.9878 21.3539L23.0794 21.3795L23.9128 23.4075C24.0023 23.6275 23.8941 23.8763 23.6708 23.9643C23.6173 23.9859 23.5625 23.9953 23.5091 23.9953V23.9962H18.2587C18.0176 23.9962 17.8221 23.804 17.8221 23.5669C17.8221 23.4982 17.8386 23.434 17.8669 23.377L18.6633 21.4401L16.6165 21.468C16.3763 21.4711 16.179 21.2811 16.1767 21.0454C16.1735 20.8092 16.3667 20.6152 16.6064 20.6129L19.0168 20.5806L20.48 17.0204C20.5695 16.8003 20.8225 16.6944 21.0463 16.7824C21.1609 16.8273 21.2458 16.9153 21.2883 17.0204L21.2873 17.0191ZM21.7915 20.5308L20.8827 18.3204L19.9597 20.5662L21.7951 20.5415L21.7905 20.5316L21.7915 20.5308ZM22.8619 23.1358L22.1449 21.3911L19.6067 21.4253L18.9039 23.1358H22.8628L22.8619 23.1358ZM39.6185 22.4222L41.5977 17.6069H37.6388L39.6181 22.4222H39.6185ZM41.3347 20.5308L40.0221 23.725C39.9797 23.83 39.8943 23.9181 39.7801 23.963C39.5563 24.051 39.3033 23.9446 39.2138 23.725L36.6016 17.3675C36.5733 17.3105 36.5568 17.2463 36.5568 17.1776C36.5568 16.9405 36.7523 16.7483 36.9934 16.7483H42.2438V16.7492C42.2972 16.7492 42.353 16.7591 42.4055 16.7802C42.6293 16.8682 42.737 17.117 42.6475 17.337L41.335 20.5312L41.3347 20.5308ZM30 0C38.284 0 45.7839 3.30155 51.2131 8.64043C56.6417 13.9785 60 21.3539 60 29.5C60 37.646 56.6425 45.0208 51.2131 50.3596C45.7846 55.6976 38.2842 59 30 59C21.7158 59 14.2161 55.6984 8.78688 50.3596C3.35833 45.0215 0 37.6461 0 29.5C0 21.354 3.35751 13.9792 8.78688 8.64043C14.2154 3.30235 21.7158 0 30 0ZM50.5958 9.24673C45.3244 4.06316 38.0433 0.85818 30 0.85818C21.9567 0.85818 14.6744 4.06408 9.40415 9.24673C4.13273 14.4303 0.873427 21.59 0.873427 29.4993C0.873427 37.4086 4.13367 44.5695 9.40415 49.7519C14.6756 54.9355 21.9567 58.1404 30 58.1404C38.0433 58.1404 45.3256 54.9345 50.5958 49.7519C55.8673 44.5683 59.1266 37.4086 59.1266 29.4993C59.1266 21.59 55.8663 14.4291 50.5958 9.24673ZM28.6322 3.2136L28.4522 3.22348L28.2819 3.23336L28.1116 3.24414L27.9412 3.25582L27.7709 3.26884L27.6019 3.28276L27.433 3.29758L27.264 3.31374L27.0959 3.33081L26.9279 3.34922L26.8626 3.35686L26.9671 4.20873L27.027 4.20245L27.1895 4.18404L27.3521 4.16697L27.5156 4.15081L27.6791 4.13599L27.8426 4.12207L28.0074 4.10904L28.1723 4.09737L28.3372 4.08659L28.502 4.07671L28.6765 4.06683L28.6317 3.20957L28.6322 3.2136ZM25.9839 3.47451L25.925 3.48304L25.7593 3.50864L25.5935 3.53558L25.4277 3.56342L25.098 3.6218L24.9331 3.65189L24.7696 3.68287L24.6062 3.71521L24.4427 3.74844L24.2801 3.78257L24.2362 3.79245L24.4271 4.6304L24.4655 4.62187L24.6226 4.58864L24.7806 4.55631L24.9386 4.52532L25.0966 4.49524L25.4154 4.43686L25.5748 4.40902L25.7351 4.38207L25.8954 4.35647L26.0557 4.33178L26.1146 4.32324L25.9826 3.47451L25.9839 3.47451ZM23.375 3.99273L23.3115 4.00889L23.1512 4.04976L22.9919 4.09152L22.8325 4.13463L22.6731 4.17864L22.5151 4.22354L22.3571 4.2698L22.199 4.31695L22.0419 4.3641L21.8848 4.4126L21.7287 4.462L21.6707 4.48041L21.9456 5.29501L21.9981 5.27794L22.1497 5.22944L22.3013 5.18229L22.453 5.13604L22.606 5.09113L22.7589 5.04712L23.0667 4.9609L23.2206 4.91914L23.3754 4.87828L23.5303 4.83876L23.5937 4.82259L23.3768 3.99092L23.375 3.99273ZM20.8327 4.76421L20.798 4.77724L20.6441 4.83292L20.4911 4.88995L20.3381 4.94788L20.0349 5.06553L19.8833 5.12571L19.7326 5.18678L19.5819 5.2492L19.2832 5.37584L19.1873 5.4176L19.5421 6.20212L19.6339 6.1626L19.7778 6.10152L19.923 6.04045L20.0682 5.98028L20.2144 5.92145L20.5066 5.80559L20.6541 5.74856L20.8016 5.69288L20.9501 5.63809L21.0985 5.58465L21.1332 5.57163L20.8331 4.76601L20.8327 4.76421ZM18.38 5.78359L18.2512 5.84466L18.1059 5.91562L17.9607 5.98747L17.8169 6.05932L17.673 6.13206L17.5292 6.20616L17.2433 6.35615L17.1013 6.43249L16.9592 6.50973L16.8085 6.59325L17.2437 7.33781L17.3858 7.25967L17.5223 7.18468L17.6598 7.11058L17.7972 7.03783L18.074 6.89413L18.2137 6.82318L18.3535 6.75357L18.6348 6.61616L18.7636 6.55509L18.3795 5.7836L18.38 5.78359ZM16.0449 7.03689L15.9837 7.07326L15.8463 7.15679L15.5732 7.32654L15.438 7.41231L15.3028 7.49943L15.0343 7.67546L14.9014 7.76437L14.7685 7.85463L14.6366 7.9449L14.5626 7.99654L15.069 8.69618L15.1389 8.64678L15.2668 8.55876L15.3956 8.47164L15.5244 8.38587L15.654 8.3001L15.7837 8.21523L16.0459 8.04818L16.1779 7.96555L16.3098 7.88382L16.4427 7.80344L16.5039 7.76707L16.0454 7.03644L16.0449 7.03689ZM13.846 8.51344L13.7291 8.60056L13.6012 8.69711L13.3482 8.892L13.2226 8.99079L12.9742 9.19018L12.8509 9.29122L12.7276 9.39316L12.6052 9.4951L12.4828 9.59793L12.4664 9.61185L13.0413 10.2576L13.171 10.1471L13.4085 9.94954L13.5286 9.8521L13.6487 9.75555L13.7697 9.659L13.8907 9.56335L14.1355 9.37475L14.2588 9.28134L14.3757 9.19422L13.8442 8.51299L13.846 8.51344ZM11.8087 10.1947L11.7672 10.2325L11.5334 10.4489L11.3023 10.668L11.1877 10.7785L10.9611 11.0012L10.8488 11.114L10.6259 11.3412L10.5483 11.4216L11.1836 12.0108L11.2575 11.9335L11.3658 11.823L11.474 11.7135L11.5831 11.6039L11.6923 11.4957L11.8023 11.3883L11.9138 11.281L12.0252 11.1746L12.1375 11.0682L12.2499 10.9631L12.3631 10.8589L12.4047 10.8212L11.8101 10.1925L11.8087 10.1947ZM9.94825 12.0669L9.86742 12.1571L9.76147 12.2761L9.65689 12.3965L9.55322 12.5168L9.44956 12.6381L9.34681 12.7593L9.14404 13.0036L9.04357 13.1271L8.84538 13.3759L8.81797 13.4114L9.51075 13.9341L9.53496 13.9031L9.72676 13.6624L9.82403 13.5434L9.92221 13.4244L10.0204 13.3063L10.1195 13.1882L10.3204 12.9547L10.4218 12.8388L10.5246 12.7239L10.6054 12.6336L9.94871 12.0682L9.94825 12.0669ZM8.28639 14.1088L8.26675 14.1357L8.17313 14.2646L8.08043 14.3935L7.98864 14.5233L7.89684 14.654L7.80642 14.7846L7.62741 15.0487L7.53882 15.1816L7.45159 15.3145L7.36528 15.4488L7.29632 15.557L8.03705 16.0119L8.10372 15.9077L8.18775 15.778L8.35763 15.5202L8.44394 15.3927L8.53116 15.2651L8.61839 15.1385L8.70698 15.0118L8.88599 14.7604L8.97642 14.636L8.99605 14.609L8.28775 14.107L8.28639 14.1088ZM6.8373 16.3051L6.78159 16.4008L6.62266 16.6774L6.54411 16.817L6.46648 16.9567L6.31395 17.2378L6.2386 17.3793L6.16462 17.5207L6.09155 17.6622L6.01848 17.805L5.99884 17.8436L6.78341 18.2213L6.80076 18.1871L6.87063 18.0488L6.94142 17.9114L7.01357 17.774L7.15971 17.5019L7.23369 17.3667L7.30904 17.2315L7.46157 16.963L7.53921 16.8301L7.59492 16.7344L6.83775 16.3065L6.8373 16.3051ZM5.61748 18.6304L5.59875 18.6699L5.53208 18.8159L5.46677 18.9627L5.33799 19.2564L5.27451 19.4046L5.2124 19.5528L5.1512 19.7019L5.03156 20.0001L4.97265 20.1505L4.93794 20.2426L5.7563 20.543L5.7901 20.4559L5.84672 20.3108L5.90472 20.1658L6.02254 19.8784L6.08237 19.7347L6.14356 19.5919L6.20567 19.4491L6.26778 19.3076L6.33126 19.1662L6.39565 19.0247L6.41437 18.9852L5.61884 18.6313L5.61748 18.6304ZM4.63882 21.0662L4.58858 21.213L4.53744 21.3666L4.4872 21.5202L4.43788 21.6747L4.38993 21.8292L4.34198 21.9845L4.29494 22.1399L4.24927 22.2953L4.20452 22.452L4.16068 22.6088L4.12688 22.7345L4.97128 22.9532L5.00416 22.8328L5.04663 22.6815L5.13432 22.3788L5.17907 22.2284L5.22474 22.078L5.27177 21.9289L5.31972 21.7798L5.36905 21.6307L5.41837 21.4825L5.4686 21.3356L4.6402 21.0653L4.63882 21.0662ZM3.91408 23.5845L3.88348 23.7188L3.8474 23.8787L3.81269 24.0385L3.7789 24.1993L3.74602 24.36L3.71451 24.5208L3.68391 24.6829L3.62454 25.0071L3.59623 25.1702L3.57568 25.2968L4.43788 25.432L4.45752 25.3107L4.48492 25.1531L4.51324 24.9964L4.5726 24.6829L4.6032 24.5275L4.63471 24.3722L4.66759 24.2168L4.70139 24.0623L4.73609 23.9078L4.76669 23.7735L3.91453 23.5858L3.91408 23.5845ZM3.44826 26.1617L3.42863 26.3162L3.40899 26.4814L3.39027 26.6467L3.37291 26.812L3.35647 26.9781L3.3414 27.1443L3.32725 27.3104L3.314 27.4779L3.30213 27.6454L3.29117 27.8129L3.28569 27.8978L4.15748 27.9472L4.16204 27.8677L4.173 27.7056L4.18488 27.5435L4.19812 27.3813L4.21228 27.2206L4.22735 27.0598L4.24379 26.8991L4.26114 26.7392L4.27987 26.5793L4.2995 26.4195L4.31914 26.265L3.45282 26.1621L3.44826 26.1617ZM3.2455 28.769L3.24458 28.8238L3.24002 28.9935L3.23682 29.1633L3.23454 29.333L3.23362 29.5037L3.23454 29.6743L3.23682 29.8441L3.24002 30.0138L3.24915 30.3533L3.25463 30.5141L4.12642 30.4818L4.12094 30.3264L4.11637 30.162L4.11318 29.9977L4.11089 29.8333L4.10998 29.6689V29.3384L4.11089 29.1741L4.11318 29.0097L4.11637 28.8454L4.11729 28.7906L3.24459 28.769L3.2455 28.769ZM3.30213 31.3862L3.31309 31.5277L3.32633 31.6952L3.34049 31.8613L3.35556 32.0275L3.372 32.1936L3.38935 32.3589L3.40808 32.5241L3.42771 32.6894L3.44826 32.8546L3.47018 33.019L3.48434 33.12L4.34837 33.001L4.33512 32.9054L4.31457 32.7464L4.2753 32.4267L4.25657 32.2668L4.23922 32.107L4.22278 31.9462L4.20771 31.7854L4.19355 31.6247L4.18031 31.4626L4.16935 31.3211L3.29847 31.3867L3.30213 31.3862ZM3.62089 33.9818L3.6524 34.1618L3.68208 34.324L3.71268 34.4861L3.74419 34.6468L3.77707 34.8076L3.81087 34.9684L3.84557 35.1282L3.88165 35.2881L3.91864 35.448L3.957 35.6069L3.97755 35.6927L4.8256 35.4888L4.80596 35.4084L4.76897 35.2549L4.73289 35.1004L4.69819 34.9459L4.66439 34.7914L4.63151 34.636L4.6 34.4807L4.5694 34.3253L4.51004 34.0118L4.47944 33.8371L3.61952 33.9831L3.62089 33.9818ZM4.20132 36.5356L4.25064 36.7085L4.29631 36.8639L4.34334 37.0193L4.3913 37.1747L4.43925 37.3291L4.48857 37.4836L4.5388 37.6372L4.58995 37.7908L4.64247 37.9444L4.6959 38.0966L4.73289 38.2008L5.55674 37.9152L5.52203 37.8155L5.47088 37.6673L5.42065 37.5191L5.37133 37.3709L5.322 37.2218L5.27405 37.0727L5.22702 36.9236L5.18135 36.7732L5.13659 36.6227L5.09275 36.4714L5.0448 36.3039L4.20361 36.5334L4.20132 36.5356ZM5.03932 39.0216L5.09184 39.1537L5.15167 39.3028L5.21286 39.4519L5.27497 39.6L5.33845 39.7482L5.46723 40.0419L5.53254 40.1888L5.59921 40.3347L5.6668 40.4807L5.73439 40.6244L6.52535 40.2615L6.46004 40.1219L6.39474 39.9813L6.33035 39.8398L6.26687 39.6984L6.20476 39.5569L6.14265 39.4141L6.08146 39.2713L6.02163 39.1276L5.90381 38.8402L5.85129 38.7082L5.03933 39.0225L5.03932 39.0216ZM6.12485 41.4102L6.16412 41.4852L6.2381 41.6266L6.31345 41.7681L6.46598 42.0492L6.54362 42.1889L6.62217 42.3285L6.78109 42.6051L6.86192 42.7425L6.94367 42.88L6.97975 42.9401L7.72823 42.4991L7.69444 42.4435L7.61498 42.3105L7.53643 42.1776L7.45879 42.0447L7.30626 41.7762L7.23091 41.641L7.15693 41.5058L7.01079 41.2337L6.93864 41.0963L6.89936 41.0213L6.12256 41.4129L6.12485 41.4102ZM7.44603 43.6806L7.53965 43.8235L7.62825 43.9564L7.80726 44.2204L7.89768 44.3511L7.98947 44.4818L8.08126 44.6115L8.17397 44.7404L8.26759 44.8693L8.36258 44.9969L8.453 45.1181L9.15582 44.6084L9.06859 44.4917L8.9768 44.3673L8.88638 44.2429L8.70737 43.9914L8.61878 43.8648L8.53155 43.7381L8.44432 43.6106L8.35801 43.4831L8.27307 43.3542L8.18265 43.2159L7.44832 43.6793L7.44603 43.6806ZM8.99098 45.8128L9.0435 45.8784L9.14397 46.0019L9.34674 46.2462L9.44949 46.3674L9.55316 46.4887L9.65682 46.609L9.7614 46.7294L9.86735 46.8484L9.9733 46.9665L10.0802 47.0846L10.1359 47.1456L10.7816 46.5686L10.7291 46.5116L10.6254 46.398L10.4199 46.168L10.3185 46.0522L10.1176 45.8187L10.0185 45.7006L9.92031 45.5825L9.82213 45.4635L9.72486 45.3445L9.67234 45.2789L8.98915 45.8133L8.99098 45.8128ZM10.7432 47.7838L10.8492 47.8911L10.9615 48.0039L11.188 48.2266L11.3026 48.3371L11.5337 48.5562L11.7675 48.7726L11.8854 48.88L12.0164 48.9981L12.6001 48.3595L12.4768 48.2481L12.3621 48.144L12.2489 48.0398L12.1365 47.9347L12.0242 47.8283L11.9128 47.7218L11.8013 47.6145L11.6913 47.5072L11.5821 47.399L11.473 47.2894L11.367 47.1821L10.7428 47.782L10.7432 47.7838ZM12.6823 49.5733L12.7279 49.6119L12.8512 49.7138L12.9745 49.8149L13.223 50.0143L13.3486 50.1131L13.6016 50.308L13.7294 50.4045L13.8573 50.5002L13.9861 50.5958L14.0724 50.6582L14.5907 49.9671L14.509 49.9069L14.3848 49.8149L14.2615 49.7228L14.1382 49.6294L13.8934 49.4408L13.7724 49.3452L13.6513 49.2486L13.5312 49.1521L13.4111 49.0546L13.2924 48.9558L13.2467 48.9172L12.6827 49.5728L12.6823 49.5733ZM14.7935 51.1665L14.9018 51.2393L15.0346 51.3282L15.3032 51.5042L15.4383 51.5913L15.5735 51.6771L15.8466 51.8469L15.9841 51.9304L16.1215 52.013L16.2599 52.0947L16.2859 52.1109L16.7298 51.3717L16.7079 51.3587L16.5736 51.2792L16.3079 51.1185L16.1759 51.0367L16.0439 50.9541L15.7818 50.7871L15.6521 50.7022L15.5224 50.6164L15.3936 50.5307L15.2854 50.4579L14.7921 51.1661L14.7935 51.1665ZM17.0531 52.5451L17.0988 52.5698L17.2408 52.6462L17.5267 52.7962L17.6706 52.8703L17.8144 52.943L17.9583 53.0149L18.1035 53.0867L18.2487 53.1577L18.3949 53.2273L18.541 53.296L18.6328 53.3391L19.0018 52.5613L18.9146 52.5218L18.7725 52.4553L18.6319 52.3875L18.3506 52.2501L18.2108 52.1805L18.0711 52.1095L17.7943 51.9658L17.6569 51.8931L17.5194 51.819L17.4738 51.7943L17.0527 52.5465L17.0531 52.5451ZM19.4438 53.6974L19.5804 53.7553L19.7311 53.8177L19.8818 53.8788L20.0334 53.939L20.3366 54.0566L20.4896 54.1146L20.6426 54.1716L20.7965 54.2273L20.9504 54.2821L21.0943 54.3323L21.3847 53.5222L21.245 53.4737L21.0966 53.4212L20.9481 53.3678L20.7997 53.313L20.6522 53.2573L20.5047 53.2003L20.2124 53.0844L20.0663 53.0256L19.9211 52.9654L19.7845 52.9075L19.4443 53.6983L19.4438 53.6974ZM21.9382 54.6085L22.0409 54.6395L22.198 54.6867L22.3561 54.7338L22.5141 54.7801L22.6721 54.825L22.8315 54.869L22.9908 54.9121L23.1502 54.9539L23.3105 54.9947L23.4708 55.0342L23.6475 55.0774L23.8494 54.2425L23.6836 54.2017L23.5288 54.1631L23.374 54.1235L23.2192 54.0827L23.0653 54.0409L22.7575 53.9547L22.6045 53.9107L22.4515 53.8658L22.2999 53.8195L22.1971 53.7885L21.9373 54.6081L21.9382 54.6085ZM24.5133 55.2696L24.606 55.2889L24.7695 55.3212L24.933 55.3522L25.0979 55.3823L25.4276 55.4406L25.5934 55.4685L25.7591 55.4954L25.9249 55.521L26.0907 55.5457L26.2633 55.5704L26.3789 54.7195L26.2172 54.697L26.0569 54.6732L25.8966 54.6485L25.7363 54.6229L25.576 54.596L25.4167 54.5681L25.0979 54.5097L24.9399 54.4797L24.7819 54.4487L24.6892 54.4294L24.5147 55.2705L24.5133 55.2696ZM27.1429 55.6751L27.2639 55.6881L27.4328 55.7042L27.6018 55.7191L27.7708 55.733L27.9411 55.746L28.1115 55.7577L28.2818 55.7685L28.4521 55.7783L28.6234 55.7869L28.7946 55.7945L28.9115 55.799L28.9444 54.9417L28.833 54.9372L28.6672 54.9296L28.5014 54.9211L28.3366 54.9112L28.1717 54.9004L28.0068 54.8887L27.842 54.8757L27.6785 54.8618L27.515 54.847L27.3515 54.8308L27.2305 54.8178L27.1419 55.6719L27.1429 55.6751ZM29.7975 55.8219H29.8272L30.0007 55.8228L30.1743 55.8219L30.3469 55.8196L30.5195 55.8165L30.8648 55.8075L31.036 55.8021L31.2073 55.7958L31.3785 55.7882L31.5498 55.7797L31.5749 55.7788L31.5192 54.9224L31.4995 54.9233L31.3337 54.9319L31.168 54.9395L31.0022 54.9458L30.8364 54.9512L30.6693 54.9557L30.5021 54.9588L30.335 54.961L30.1678 54.9619H29.802L29.7966 55.8201L29.7975 55.8219ZM32.4567 55.7137L32.5668 55.7038L32.7357 55.6876L32.9038 55.6706L33.0719 55.6521L33.2399 55.6328L33.408 55.6126L33.5751 55.5911L33.7423 55.5686L33.9094 55.5448L34.0752 55.5201L34.2158 55.4986L34.0784 54.6507L33.9432 54.6709L33.7829 54.6947L33.6212 54.7172L33.4596 54.7388L33.2979 54.759L32.9728 54.7976L32.8102 54.816L32.6476 54.8331L32.4841 54.8492L32.3741 54.8591L32.4572 55.7132L32.4567 55.7137ZM35.0917 55.3477L35.2292 55.3207L35.3927 55.2884L35.5562 55.2552L35.7187 55.221L35.8813 55.1856L36.0439 55.1492L36.2055 55.1115L36.5289 55.0342L36.6892 54.9947L36.8211 54.9606L36.5987 54.1303L36.4709 54.1626L36.3161 54.2012L36.1599 54.2389L35.8475 54.3117L35.6904 54.3472L35.5333 54.3813L35.3762 54.4145L35.2182 54.4468L35.0602 54.4778L34.9227 54.5048L35.0917 55.3472L35.0917 55.3477ZM37.6765 54.7244L37.8007 54.688L37.9578 54.6409L38.1149 54.5924L38.2711 54.543L38.4272 54.4927L38.5834 54.441L38.7382 54.3885L38.893 54.335L39.0469 54.2816L39.2008 54.2268L39.3579 54.1698L39.0479 53.3673H39.0488L38.9004 53.4207L38.7519 53.4733L38.6026 53.5258L38.4533 53.5775L38.3026 53.6278L38.1519 53.6772L38.0012 53.7257L37.8495 53.7742L37.6979 53.8213L37.5463 53.8676L37.4221 53.9039L37.6765 54.7248L37.6765 54.7244ZM40.184 53.85L40.2672 53.8168L40.4179 53.7544L40.7165 53.6278L40.8659 53.5635L41.0143 53.498L41.1627 53.4315L41.4577 53.2959L41.6038 53.2272L41.75 53.1576L41.8025 53.132L41.4139 52.3636L41.3659 52.3874L41.2253 52.4552L41.0832 52.5217L40.9412 52.5873L40.7983 52.6528L40.6553 52.717L40.5115 52.7804L40.3676 52.8428L40.2238 52.9039L40.0785 52.9649L39.9333 53.0251L39.8502 53.0583L40.1854 53.8514L40.184 53.85ZM42.5898 52.7341L42.6149 52.7211L42.7579 52.6461L42.8999 52.5698L43.0419 52.4925L43.3232 52.3363L43.4629 52.2568L43.6027 52.1764L43.8794 52.0129L44.0169 51.9303L44.1283 51.8625L43.6657 51.1341L43.5589 51.1997L43.426 51.2801L43.2917 51.3595L43.1574 51.4377L43.0223 51.5158L42.8871 51.5931L42.7519 51.6694L42.4788 51.8194L42.3414 51.8935L42.2039 51.9662L42.1788 51.9792L42.5912 52.7355L42.5898 52.7341ZM44.8722 51.3874L44.9626 51.3272L45.0955 51.2383L45.2284 51.148L45.3604 51.0578L45.4915 50.9666L45.6225 50.8745L45.8819 50.6877L46.0107 50.5934L46.1395 50.4978L46.2674 50.4021L46.3121 50.3689L45.7765 49.6908L45.7363 49.7209L45.613 49.8129L45.4887 49.905L45.3645 49.9962L45.2389 50.0864L45.1124 50.1767L44.986 50.2656L44.7302 50.4416L44.6014 50.5288L44.4726 50.6145L44.3822 50.6747L44.8709 51.386L44.8722 51.3874ZM47.0067 49.8264L47.0241 49.8125L47.1474 49.7115L47.2707 49.6095L47.3931 49.5076L47.5155 49.4048L47.6365 49.3006L47.7566 49.1964L47.8767 49.0913L48.1142 48.8785L48.232 48.7711L48.3388 48.6737L47.7397 48.049L47.6369 48.1433L47.5223 48.2475L47.4077 48.3503L47.1766 48.5542L46.9428 48.7563L46.825 48.856L46.5875 49.0536L46.4674 49.151L46.45 49.165L47.0054 49.8269L47.0067 49.8264ZM48.975 48.0648L49.0385 48.0024L49.1508 47.8896L49.3737 47.6624L49.5938 47.4325L49.7029 47.3166L49.9194 47.0831L50.0263 46.965L50.1322 46.8469L50.1847 46.7881L49.5244 46.2259L49.4751 46.2807L49.3723 46.3956L49.165 46.6228L49.0604 46.7356L48.9545 46.8483L48.8485 46.9596L48.7417 47.0701L48.6334 47.1806L48.5252 47.2902L48.416 47.3997L48.3526 47.4622L48.9736 48.0652L48.975 48.0648ZM50.7569 46.1208L50.8551 46.0018L50.9556 45.8783L51.1538 45.6295L51.252 45.5038L51.3492 45.378L51.4465 45.2514L51.5424 45.1247L51.7324 44.8697L51.8315 44.7336L51.1168 44.2401L51.0232 44.369L50.9314 44.4933L50.8396 44.6168L50.7469 44.739L50.6533 44.8611L50.5596 44.9824L50.4647 45.1036L50.2729 45.3443L50.1756 45.4633L50.0774 45.5823L50.7574 46.1208L50.7569 46.1208ZM52.3325 44.0147L52.3718 43.9568L52.4604 43.8239L52.5476 43.691L52.7202 43.4224L52.8052 43.2873L52.8892 43.1521L53.0554 42.8799L53.1372 42.7425L53.218 42.6051L53.2628 42.5279L52.5033 42.104L52.4609 42.1767L52.3823 42.3096L52.3028 42.4425L52.2234 42.5746L52.1425 42.7066L51.9791 42.9679L51.8959 43.0977L51.8119 43.2275L51.642 43.4853L51.6028 43.5432L52.3316 44.0152L52.3325 44.0147ZM53.6897 41.7626L53.7605 41.6284L53.8345 41.4869L53.9075 41.3455L53.9806 41.2026L54.0528 41.0598L54.1236 40.9161L54.1934 40.7724L54.3313 40.4824L54.3989 40.3364L54.4633 40.195L53.6655 39.846L53.6034 39.9821L53.5381 40.1227L53.4714 40.2632L53.4048 40.4029L53.3372 40.5425L53.2682 40.6808L53.1285 40.9575L53.0577 41.0949L52.9855 41.2323L52.9147 41.3666L53.6893 41.7626L53.6897 41.7626ZM54.8113 39.3902L54.846 39.3044L54.9657 39.0063L55.0246 38.8558L55.0826 38.7054L55.1392 38.554L55.1949 38.4027L55.2493 38.2514L55.3036 38.0991L55.357 37.9469L55.4096 37.7933L55.4237 37.7525L54.5935 37.4875L54.5816 37.5239L54.5314 37.6721L54.4802 37.8203L54.4277 37.9671L54.3743 38.114L54.3208 38.2599L54.2665 38.4059L54.2108 38.5518L54.1541 38.6968L54.0961 38.8419L54.0372 38.9856L54.0025 39.0714L54.8122 39.3911L54.8113 39.3902ZM55.6863 36.919L55.7027 36.8656L55.7484 36.7102L55.7932 36.5535L55.837 36.3967L55.8795 36.24L55.921 36.0824L55.9612 35.9248L56.0398 35.6068L56.0781 35.4479L56.1151 35.288L56.1284 35.2278L55.2753 35.0455L55.2634 35.1003L55.2273 35.2548L55.1534 35.562L55.115 35.7155L55.0757 35.8678L55.0355 36.02L54.994 36.1722L54.9515 36.3236L54.8638 36.6262L54.8474 36.6797L55.6854 36.919L55.6863 36.919ZM56.306 34.3741L56.3161 34.3247L56.3754 34.0005L56.4037 33.8375L56.4311 33.6745L56.4572 33.5115L56.4823 33.3485L56.5065 33.1841L56.5293 33.0197L56.5513 32.8554L56.5718 32.6901L56.5773 32.647L55.7096 32.5496L55.705 32.5873L55.6854 32.7472L55.6648 32.9061L55.6429 33.0651L55.6201 33.2241L55.5959 33.3817L55.5708 33.5393L55.5447 33.6969L55.5173 33.8545L55.489 34.0113L55.4593 34.168L55.4493 34.2174L56.3078 34.3741L56.306 34.3741ZM56.665 31.7807L56.6727 31.6959L56.686 31.5284L56.6978 31.3609L56.7088 31.1934L56.7189 31.0259L56.7275 30.8575L56.7353 30.6891L56.7417 30.5207L56.7472 30.3523L56.7517 30.1826L56.7549 30.0389L55.8822 30.0227L55.879 30.161L55.8745 30.3254L55.869 30.4884L55.8626 30.6514L55.8548 30.8144L55.8461 30.9774L55.8361 31.1395L55.8251 31.3016L55.8133 31.4638L55.8 31.6259L55.7923 31.7108L56.6618 31.7817L56.665 31.7807ZM56.7622 29.168L56.759 28.9951L56.7499 28.6557L56.7444 28.4873L56.738 28.3189L56.7303 28.1505L56.7216 27.9821L56.7115 27.8146L56.7006 27.6471L56.6887 27.4796L56.6841 27.4226L55.8146 27.4935L55.8192 27.5452L55.8311 27.7073L55.842 27.8694L55.8521 28.0315L55.8608 28.1945L55.8685 28.3575L55.8749 28.5205L55.8804 28.6836L55.885 28.8479L55.8882 29.0123L55.8904 29.1798L56.7631 29.169L56.7622 29.168ZM56.5987 26.5553L56.5901 26.4826L56.5704 26.3173L56.5499 26.1521L56.528 25.9877L56.5051 25.8234L56.4809 25.659L56.4558 25.496L56.4298 25.333L56.4024 25.17L56.3741 25.0069L56.3444 24.8448L56.3412 24.8264L55.4826 24.9831L55.5132 25.1538L55.5406 25.3114L55.5667 25.469L55.5918 25.6266L55.616 25.7843L55.6388 25.9432L55.6607 26.1022L55.6813 26.2612L55.7206 26.5809L55.7292 26.6537L56.5969 26.5562L56.5987 26.5553ZM56.1722 23.9714L56.1526 23.8793L56.1165 23.7194L56.0795 23.5596L56.0412 23.4006L55.9626 23.0827L55.9224 22.9251L55.8809 22.7674L55.8384 22.6107L55.7945 22.454L55.7498 22.2973L55.7434 22.2757L54.9054 22.515L54.9534 22.6825L54.9958 22.8339L55.0374 22.9861L55.0776 23.1383L55.1168 23.2906L55.1552 23.4441L55.2292 23.7513L55.2653 23.9058L55.3 24.0603L55.3196 24.1523L56.1727 23.97L56.1722 23.9714ZM55.4858 21.4436L55.4616 21.3695L55.4105 21.2159L55.358 21.0624L55.3045 20.9101L55.2502 20.7579L55.1958 20.6066L55.1401 20.4552L55.0835 20.3039L55.0255 20.1535L54.9666 20.003L54.9068 19.8539L54.8848 19.8014L54.0752 20.1211L54.0948 20.1696L54.1528 20.3147L54.2094 20.4597L54.2651 20.6057L54.3195 20.7516L54.3729 20.8975L54.4263 21.0444L54.4789 21.1912L54.53 21.3394L54.5802 21.4876L54.6296 21.6358L54.6538 21.7099L55.484 21.445L55.4858 21.4436ZM54.5464 18.9962L54.5323 18.9652L54.467 18.8184L54.4003 18.6725L54.3327 18.5265L54.1948 18.2364L54.1249 18.0927L54.0541 17.949L53.982 17.8062L53.9089 17.6634L53.8359 17.522L53.7824 17.42L53.0079 17.8161L53.0591 17.9126L53.1298 18.0501L53.2696 18.3267L53.3385 18.465L53.4061 18.6046L53.4728 18.7443L53.5395 18.8848L53.6048 19.0254L53.6692 19.1669L53.7327 19.3083L53.7468 19.3393L54.5464 18.9949L54.5464 18.9962ZM53.3613 16.6508L53.2979 16.5412L53.2184 16.4029L53.1376 16.2655L53.0558 16.1281L52.8896 15.856L52.8056 15.7208L52.7206 15.5856L52.548 15.3171L52.4608 15.1842L52.4434 15.1572L51.7146 15.6292L51.7287 15.6516L51.8137 15.7805L51.8977 15.9103L51.9808 16.0401L52.1443 16.3014L52.2251 16.4335L52.3046 16.5655L52.384 16.6984L52.4626 16.8313L52.5402 16.9642L52.6037 17.0738L53.3632 16.6499L53.3613 16.6508ZM51.947 14.436L51.9196 14.3974L51.8269 14.2685L51.7333 14.1396L51.5433 13.8845L51.4474 13.7579L51.3501 13.6312L51.2528 13.5055L51.1546 13.3797L50.9564 13.131L50.8834 13.0407L50.2034 13.5791L50.2733 13.6649L50.4651 13.9056L50.5601 14.0268L50.6537 14.1481L50.7473 14.2702L50.84 14.3924L50.9318 14.5159L51.0236 14.6403L51.114 14.7647L51.2035 14.8904L51.2309 14.929L51.9456 14.4355L51.947 14.436ZM50.3148 12.3685L50.2372 12.2805L50.1312 12.1615L50.0253 12.0434L49.9184 11.9253L49.7019 11.6918L49.5928 11.5759L49.3727 11.346L49.1498 11.1188L49.1151 11.0833L48.4941 11.6864L48.5256 11.7187L48.6338 11.8283L48.742 11.9388L48.8489 12.0492L48.9548 12.1606L49.0608 12.2733L49.1654 12.386L49.3727 12.6133L49.5782 12.8432L49.6558 12.9312L50.3162 12.369L50.3148 12.3685ZM48.485 10.4717L48.4653 10.4533L48.2315 10.2368L48.1137 10.1295L47.8762 9.91663L47.7561 9.81155L47.636 9.70737L47.515 9.60318L47.3926 9.50035L47.2702 9.39841L47.162 9.30815L46.6021 9.96693L46.7067 10.054L46.8254 10.1528L46.9432 10.2525L47.177 10.4546L47.4081 10.6585L47.5227 10.7613L47.6374 10.8655L47.7506 10.9697L47.863 11.0748L47.8826 11.0932L48.485 10.4721L48.485 10.4717ZM46.4719 8.75934L46.3979 8.70231L46.27 8.60576L46.1422 8.51011L46.0134 8.41446L45.8846 8.32016L45.6252 8.13335L45.4941 8.04129L45.3631 7.95013L45.2311 7.85987L45.0982 7.7696L45.0393 7.73009L44.5506 8.4414L44.605 8.47778L44.7338 8.5649L44.9895 8.74092L45.116 8.82984L45.2425 8.9201L45.3681 9.01036L45.4923 9.10152L45.6165 9.19358L45.7398 9.28564L45.8631 9.37904L45.9371 9.43608L46.4728 8.75799L46.4719 8.75934ZM44.2981 7.25278L44.1529 7.16252L44.0154 7.079L43.8779 6.99637L43.6012 6.83291L43.4615 6.75252L43.3217 6.67304L43.0404 6.51676L42.8984 6.43952L42.7673 6.36857L42.3504 7.123L42.4769 7.1908L42.75 7.34079L42.8851 7.41713L43.0203 7.49437L43.1555 7.57251L43.2897 7.65065L43.424 7.73013L43.6898 7.89089L43.8304 7.97801L44.2976 7.25277L44.2981 7.25278ZM41.9805 5.96396L41.8942 5.9222L41.749 5.85125L41.6028 5.78164L41.4567 5.71293L41.1617 5.57732L41.0133 5.51085L40.8648 5.44529L40.7155 5.38108L40.4168 5.25444L40.3675 5.23423L40.0323 6.02727L40.0771 6.04568L40.2223 6.10676L40.3662 6.16783L40.51 6.23025L40.6539 6.29357L40.7968 6.35778L40.9398 6.42335L41.0818 6.48891L41.2238 6.55537L41.3645 6.62318L41.5051 6.69188L41.5914 6.73365L41.98 5.9653L41.9805 5.96396ZM39.546 4.90911L39.509 4.89519L39.356 4.83816L39.2021 4.78247L39.0482 4.72769L38.8943 4.67425L38.7395 4.62081L38.5847 4.56827L38.4285 4.51663L38.2723 4.46633L38.1161 4.41693L37.959 4.36844L37.8686 4.34059L37.6143 5.16148L37.7006 5.18708L37.8522 5.23423L38.0038 5.28273L38.1545 5.33123L38.3052 5.38063L38.4559 5.43092L38.6053 5.48256L38.7546 5.5351L38.903 5.58764L39.0514 5.64108L39.1998 5.69587L39.2368 5.70979L39.5469 4.90731L39.546 4.90911ZM37.0155 4.09899L36.8474 4.05499L36.6871 4.01412L36.5268 3.9746L36.2035 3.89736L36.0419 3.85964L35.8793 3.82327L35.7167 3.78779L35.5541 3.75366L35.3906 3.72043L35.2847 3.70023L35.1157 4.54267L35.2162 4.56198L35.3742 4.59431L35.5313 4.62754L35.6884 4.66167L35.8455 4.69714L36.1579 4.76989L36.3141 4.80761L36.4689 4.84623L36.6237 4.88575L36.7863 4.92886L37.0141 4.10034L37.0155 4.09899ZM34.4152 3.54215L34.2407 3.51431L34.075 3.48871L33.9092 3.46401L33.7421 3.44021L33.5749 3.41776L33.4078 3.3962L33.2397 3.37599L33.0716 3.35669L32.9036 3.33827L32.7355 3.32121L32.6547 3.31357L32.5716 4.1677L32.6456 4.17533L32.8081 4.19239L32.9707 4.21081L33.2959 4.24943L33.4575 4.26963L33.6192 4.29119L33.7808 4.31364L33.9411 4.33744L34.1014 4.36214L34.2704 4.38909L34.4133 3.5426L34.4152 3.54215ZM32.725 27.0182L49.685 27.0474C49.1338 22.6794 47.113 18.7608 44.1182 15.7836C41.1219 12.805 37.1511 10.7684 32.7026 10.1654L32.7268 27.0174L32.725 27.0182ZM31.8226 49.3079L31.8163 31.7741C31.8163 31.5379 32.0103 31.3471 32.2505 31.3471L50.1587 31.3556C50.3989 31.3556 50.5929 31.5465 50.5929 31.7827C50.5929 31.7988 50.592 31.815 50.5898 31.8312H50.5907C50.0244 36.5566 47.8488 40.7734 44.6178 43.9411C41.3846 47.1106 37.0954 49.2319 32.3038 49.7619C32.0649 49.7875 31.8498 49.6182 31.8224 49.3833C31.8192 49.3577 31.8192 49.333 31.8202 49.3083L31.8226 49.3079ZM32.6858 32.2018L32.6922 48.8504C37.0872 48.2571 41.0178 46.2633 44.0054 43.3341C46.9907 40.4062 49.0357 36.5434 49.6632 32.2086L32.6857 32.2009L32.6858 32.2018ZM10.3141 27.0514L27.4705 27.0416L27.4855 10.1343C23.001 10.6921 18.9831 12.7191 15.9499 15.7085C12.9167 18.6966 10.8662 22.6462 10.315 27.0528L10.3141 27.0514ZM27.9042 27.8957L9.84643 27.9065C9.82588 27.9074 9.80488 27.9065 9.78433 27.9042C9.54548 27.8804 9.37057 27.6716 9.39388 27.4363C9.87521 22.6381 12.0531 18.3325 15.3306 15.1022C18.6105 11.8703 22.9918 9.71699 27.8773 9.22668C27.8914 9.22578 27.9056 9.22443 27.9198 9.22443C28.16 9.22443 28.3541 9.41529 28.3541 9.65149L28.339 27.4658C28.339 27.702 28.1449 27.8928 27.9047 27.8928L27.9042 27.8957ZM10.348 32.1155C10.9229 36.4867 12.9789 40.4007 16.0044 43.3601C19.0313 46.3203 23.0294 48.3258 27.4888 48.8763L27.4856 32.1289L10.3479 32.115L10.348 32.1155ZM15.3911 43.968C12.1186 40.7675 9.9333 36.496 9.42603 31.7316C9.42512 31.7177 9.42375 31.7024 9.42375 31.6876C9.42375 31.4514 9.61784 31.2605 9.85804 31.2605L27.9205 31.2744C28.1607 31.2744 28.3548 31.4653 28.3548 31.7015L28.358 49.3364C28.3589 49.3566 28.358 49.3759 28.3557 49.3966C28.3315 49.6315 28.1191 49.8035 27.8798 49.7805C23.0231 49.2978 18.6618 47.167 15.3893 43.9661L15.3911 43.968Z" fill="#304973"/>
</svg>
