<svg width="32" height="32" viewBox="0 0 32 32" fill="none" xmlns="http://www.w3.org/2000/svg">
<path d="M17.2324 22.7207C17.2324 27.8455 20.5387 31.9995 24.6165 31.9995C28.6939 31.9995 32 27.8457 32 22.7207C32 17.7034 28.8296 13.6254 24.8711 13.457C25.35 9.38831 27.6714 4.43114 31.1973 1.01227e-07C24.7757 -0.00124607 17.2324 11.5036 17.2324 22.7207Z" fill="#A0ACC0"/>
<path d="M7.38417 32C11.4613 32 14.7683 27.8458 14.7683 22.7212C14.7683 17.7039 11.5979 13.6259 7.63941 13.4575C8.11833 9.3888 10.4395 4.43164 13.9651 0.000491974C7.54284 -0.000754197 -8.32271e-07 11.5049 0 22.722C3.80244e-07 27.8468 3.30609 32 7.38417 32Z" fill="#A0ACC0"/>
</svg>
