<svg width="16" height="15" viewBox="0 0 16 15" fill="none" xmlns="http://www.w3.org/2000/svg">
<path d="M8.24449 10.6503C8.24449 13.0526 9.82631 14.9998 11.7773 14.9998C13.728 14.9998 15.3097 13.0527 15.3097 10.6503C15.3097 8.29848 13.7929 6.3869 11.8991 6.30798C12.1282 4.40077 13.2388 2.0771 14.9257 4.74503e-08C11.8534 -0.000584095 8.24449 5.3923 8.24449 10.6503Z" fill="#D32432"/>
<path d="M3.5328 15C5.48343 15 7.06558 13.0527 7.06558 10.6505C7.06558 8.29871 5.54877 6.38713 3.65492 6.30821C3.88405 4.401 4.99458 2.07733 6.68129 0.000230613C3.60871 -0.00035353 -3.98183e-07 5.39291 0 10.6509C1.8192e-07 13.0532 1.58173 15 3.5328 15Z" fill="#D32432"/>
</svg>
