<svg width="73" height="86" viewBox="0 0 73 86" fill="none" xmlns="http://www.w3.org/2000/svg">
<path d="M35.1652 69.1209L37.4288 72.9366L42.4911 73.5487L38.8277 76.5186L39.6926 80.7128L35.1651 78.7326L30.6367 80.7128L31.5016 76.5186L27.8391 73.5487L32.9014 72.9366L35.1652 69.1209Z" fill="#1B263B"/>
<path d="M65.202 73.6289L67.4657 77.4446L72.528 78.0567L68.8646 81.0267L69.7295 85.2209L65.202 83.2407L60.6736 85.2209L61.5385 81.0267L57.876 78.0567L62.9383 77.4446L65.202 73.6289Z" fill="#1B263B"/>
<path d="M7.32632 73.6289L9.58997 77.4446L14.6523 78.0567L10.9888 81.0267L11.8538 85.2209L7.32626 83.2407L2.79783 85.2209L3.66277 81.0267L0.000244141 78.0567L5.06254 77.4446L7.32632 73.6289Z" fill="#1B263B"/>
<path d="M57.9104 51.0087C50.3516 57.1682 39.7959 59.2473 30.0022 55.5376C15.3776 49.993 8.02727 33.6755 13.5731 19.0463C14.679 16.1233 16.2223 13.4908 18.0932 11.1908C25.5757 2.00973 38.3608 -1.81937 50.0619 2.614C51.0974 3.00619 52.0877 3.43771 53.0445 3.96539C41.5918 1.18628 29.5972 6.86577 24.5187 17.6154C24.2367 18.2137 23.974 18.8317 23.7343 19.4608C18.8219 32.4262 25.3565 46.9005 38.2992 51.8013C44.9382 54.3211 51.9782 53.8222 57.912 51.0088L57.9104 51.0087Z" fill="#1B263B"/>
</svg>
