<svg width="29" height="29" viewBox="0 0 29 29" fill="none" xmlns="http://www.w3.org/2000/svg">
<path d="M22.9583 0H6.04167C2.70546 0 0 2.70546 0 6.04167V22.9583C0 26.2945 2.70546 29 6.04167 29H22.9583C26.2957 29 29 26.2945 29 22.9583V6.04167C29 2.70546 26.2957 0 22.9583 0ZM22.7904 11.1614C23.0429 16.7402 18.8826 22.9608 11.5166 22.9608C9.27637 22.9608 7.192 22.3046 5.43629 21.1785C7.54121 21.4262 9.64129 20.8425 11.3088 19.5363C9.57242 19.5037 8.10792 18.357 7.60404 16.7813C8.22633 16.8997 8.83775 16.8647 9.39479 16.7137C7.48683 16.3306 6.17096 14.6124 6.21325 12.7745C6.74733 13.0717 7.35996 13.2506 8.00883 13.2711C6.24346 12.0906 5.74321 9.7585 6.78117 7.975C8.73746 10.3747 11.6604 11.954 14.9567 12.1196C14.378 9.63887 16.2617 7.25 18.8222 7.25C19.9617 7.25 20.9936 7.73092 21.7162 8.50304C22.62 8.32542 23.4695 7.99554 24.2367 7.54121C23.9395 8.468 23.3112 9.24496 22.4931 9.73554C23.2955 9.63887 24.0603 9.42621 24.7708 9.11083C24.2404 9.9035 23.5673 10.6019 22.7904 11.1614Z" fill="#7697AA"/>
</svg>
