<svg width="60" height="69" viewBox="0 0 60 69" fill="none" xmlns="http://www.w3.org/2000/svg">
<path d="M45.4091 4.46209C44.4337 3.80417 43.22 3.58717 42.0771 3.86671L41.3064 4.05519L41.0431 3.0451C40.7697 2.0164 40.0955 1.13207 39.166 0.582885C38.2365 0.0337038 37.1266 -0.136083 36.0762 0.11051L3.08937 8.17867C2.03373 8.43828 1.12981 9.09872 0.574618 10.0149C0.0194419 10.931 -0.141531 12.0285 0.127051 13.0663L12.9288 62.1771C13.2011 63.214 13.8806 64.1059 14.8183 64.6569C15.7559 65.2079 16.8752 65.3735 17.9315 65.1166L18.7021 64.9281L18.9654 65.9382C19.1818 66.7719 19.6636 67.5179 20.3401 68.0672C21.0167 68.6169 21.8528 68.9413 22.7271 68.9935C23.1358 69.0162 23.5451 68.9794 23.942 68.8842L56.9288 60.816C57.2851 60.7312 57.6279 60.6 57.948 60.4257L58.0188 60.4084C59.1705 59.7365 59.91 58.5529 60 57.2381L59.9885 57.1941C60.0075 56.7932 59.9648 56.3919 59.8623 56.0025L47.0441 6.82862C46.8109 5.87205 46.2292 5.03013 45.4091 4.46209ZM42.2265 4.41428C43.1188 4.19556 44.0655 4.32794 44.8643 4.78319L44.1968 5.86637L41.9057 4.49274L42.2265 4.41428ZM43.8972 6.34243L42.5008 8.61138L41.5431 4.93732L43.8972 6.34243ZM50.5503 39.4911L52.5256 40.6736L51.3534 42.572L50.5503 39.4911ZM49.2635 34.5547L51.2952 35.7702L50.0896 37.7236L49.2635 34.5547ZM47.9767 29.6183L50.065 30.8668L48.8242 32.8692L47.9767 29.6183ZM51.8371 44.4277L53.7639 45.5813L52.6204 47.4324L51.8371 44.4277ZM53.8578 52.1796L53.1223 49.358L54.9929 50.4785L53.8825 52.2743L53.8546 52.1673L53.8578 52.1796ZM53.9008 53.9953L56.2244 55.3877L54.6426 57.9437L52.2121 56.4833C53.0799 55.8964 53.6842 55.0038 53.8992 53.9897L53.9008 53.9953ZM53.9808 53.3846C53.966 53.3278 53.9851 53.2693 53.9828 53.2094L55.4817 50.7814L58.0979 52.351L56.5101 54.909L53.9808 53.3846ZM52.9198 48.5812L52.8179 48.1902L54.2628 45.8695L56.879 47.4391L55.2925 50.0024L52.9198 48.5812ZM51.6331 43.6447L51.551 43.3299L53.016 40.957L55.6322 42.5265L54.0505 45.0826L51.6331 43.6447ZM50.3463 38.7083L50.2886 38.4873L51.7891 36.0654L54.4053 37.6349L52.8252 40.1972L50.3463 38.7083ZM49.0595 33.7719L49.0233 33.6332L50.5509 31.1579L53.1734 32.7259L51.5867 35.263L49.0595 33.7719ZM47.7727 28.8354L47.7664 28.8112L49.3288 26.2871L51.9513 27.8551L50.3695 30.4112L47.7727 28.8354ZM47.5587 28.0147L46.6902 24.6827L48.8269 25.9597L47.5587 28.0147ZM45.4032 19.7455L47.5962 21.0555L46.2933 23.1602L45.4032 19.7455ZM44.1164 14.8091L46.3596 16.1541L45.028 18.3061L44.1164 14.8091ZM42.8296 9.87264L45.1282 11.2459L43.7635 13.4533L42.8296 9.87264ZM17.7912 64.5802C16.8808 64.801 15.916 64.6576 15.1088 64.181C14.3022 63.7047 13.7187 62.9346 13.487 62.0404L0.682011 12.9172C0.449009 12.0234 0.587085 11.0777 1.0656 10.2879C1.54369 9.4984 2.32348 8.93015 3.23345 8.70758L36.2145 0.640819C37.1245 0.418263 38.0893 0.559806 38.8971 1.03485C39.7052 1.50979 40.2903 2.27868 40.5233 3.17257L53.3283 52.2957C53.5598 53.182 53.4258 54.1196 52.9561 54.9048L52.8988 54.9994C52.4724 55.6672 51.8241 56.1695 51.0626 56.4223L17.7868 64.5611L17.7912 64.5802ZM50.9211 57.0611L49.6423 59.1266L47.5811 57.8781L50.9211 57.0611ZM45.8984 58.2896L44.6528 60.2997L42.6292 59.0892L45.8984 58.2896ZM40.8756 59.5181L39.665 61.4794L37.6898 60.2973L40.8756 59.5181ZM35.8529 60.7466L34.5356 62.8749L32.391 61.5933L35.8529 60.7466ZM30.8302 61.9751L29.3821 64.2835L27.0663 62.8957L30.8302 61.9751ZM25.8074 63.2036L24.2846 65.6712L21.7995 64.1839L25.8074 63.2036ZM19.513 65.8176L19.2497 64.8075L20.7847 64.4321L19.66 66.2515C19.6052 66.1089 19.5614 65.9627 19.5265 65.8143L19.513 65.8176ZM19.991 66.8357L21.3895 64.5731L24.012 66.1411L22.6043 68.4195C21.5357 68.3075 20.5733 67.7241 19.991 66.8357ZM23.8013 68.3478C23.6141 68.394 23.4234 68.4248 23.231 68.44L24.4606 66.447L26.5247 67.6813L23.8013 68.3478ZM27.3017 67.4916L24.7924 65.9901L26.5125 63.2058L29.1287 64.7754L27.4579 67.4871L27.3017 67.4916ZM28.2139 67.2685L29.5822 65.0472L31.8173 66.3872L28.2139 67.2685ZM29.8816 64.5706L31.6544 61.7801L34.2769 63.3481L32.5243 66.1135L29.8816 64.5706ZM33.2366 66.04L34.7146 63.6639L37.1353 65.0865L33.2366 66.04ZM35.0093 63.1689L36.6291 60.5503L36.8925 60.4858L39.3279 61.9652L37.6079 64.7494L35.0093 63.1689ZM38.2594 64.8115L39.8411 62.2555L42.4273 63.7921L38.2594 64.8115ZM40.1387 61.7733L41.6519 59.3217L41.8316 59.2778L44.3748 60.7775L42.7885 63.3413L40.1387 61.7733ZM43.2818 63.5831L44.8637 61.0809L47.3826 62.5936L43.2818 63.5831ZM45.1261 60.5938L46.6742 58.0933L46.7705 58.0698L49.3298 59.6059L47.7497 62.1681L45.1261 60.5938ZM48.317 62.3516L49.8302 59.8999L52.2673 61.3854L48.317 62.3516ZM50.1666 59.4078L51.7483 56.8518L54.3511 58.4246L52.7694 60.9807L50.1666 59.4078ZM56.8083 60.2747L53.346 61.1215L54.837 58.7422L57.2191 60.1742C57.0781 60.2181 56.9342 60.2533 56.7886 60.2795L56.8083 60.2747ZM57.7847 59.8007L55.1685 58.2312L56.7119 55.685L59.3281 57.2546L57.7847 59.8007ZM59.3642 56.057C59.4146 56.2447 59.4484 56.4364 59.4654 56.6299L57.0448 55.2074L58.5166 52.8328L59.3642 56.057ZM58.2371 51.7331L55.8165 50.3105L57.258 47.9771L58.2371 51.7331ZM56.9503 46.7966L54.575 45.363L55.9827 43.0847L56.9503 46.7966ZM55.6635 41.8602L53.3477 40.4725L54.7223 38.2496L55.6635 41.8602ZM54.3767 36.9238L52.1093 35.5645L53.4553 33.3889L54.3767 36.9238ZM53.0899 31.9873L50.8756 30.676L52.1881 28.5554L53.0899 31.9873ZM51.8031 27.0509L49.5986 25.7774L50.8825 23.7041L51.8031 27.0509ZM50.7254 22.9162L49.1549 25.4624L46.5387 23.8929L48.0885 21.3456L50.6946 22.904L50.7254 22.9162ZM50.5163 22.1144L48.4121 20.8562L49.6623 18.838L50.5163 22.1144ZM49.4599 18.0617L47.9164 20.5546L45.3002 18.985L46.882 16.429L49.4335 17.9605L49.4599 18.0617ZM49.2296 17.178L47.18 15.9467L48.3952 13.9774L49.2296 17.178ZM48.1946 13.2076L46.6523 15.6537L44.0361 14.0842L45.6163 11.5219L48.1178 13.0188L48.1946 13.2076ZM47.9429 12.242L45.9434 11.0457L47.1317 9.13017L47.9429 12.242ZM46.9309 8.35972L45.4465 10.7374L42.8065 9.20782L44.3883 6.65178L46.8204 8.11827L46.9309 8.35972ZM46.6561 7.30559L44.713 6.14241L45.361 5.09068C45.9398 5.56836 46.3477 6.2157 46.5253 6.93525L46.6561 7.30559Z" fill="#304973"/>
<path d="M7.35523 16.7373C7.48176 16.89 7.60433 17.0549 7.72326 17.2314L7.83829 17.4112C7.84361 17.2488 7.86353 17.0894 7.8789 16.9381C7.96572 16.24 8.16225 15.5605 8.46019 14.9228C8.54481 14.7409 8.63276 14.5719 8.72392 14.4152C8.81507 14.2584 8.9171 14.0995 9.02976 13.9375L9.25323 13.6412C9.5052 13.3079 9.80236 13.009 10.1357 12.7537C10.0318 12.7393 9.92851 12.7196 9.82674 12.6948C9.58917 12.6372 9.35565 12.5641 9.12743 12.4766C8.87976 12.3803 8.63861 12.2688 8.40512 12.1427C7.35562 11.5648 6.47586 10.7293 5.85344 9.71804C5.83087 11.5311 5.00372 13.2393 3.58799 14.3954C4.48792 14.5678 5.33311 14.9508 6.0518 15.5118C6.2486 15.6543 6.43682 15.8078 6.61581 15.9716C6.88226 16.2076 7.12904 16.4638 7.35523 16.7373Z" fill="#304973"/>
<path d="M47.3898 54.259C47.5258 54.4407 47.6639 54.6285 47.7919 54.8323C47.7979 54.7236 47.805 54.6212 47.8188 54.5171C47.8387 54.3043 47.868 54.1022 47.9069 53.9115C48.0884 52.904 48.5106 51.953 49.1386 51.1385C49.2551 50.9878 49.3794 50.8431 49.5108 50.7051C49.6779 50.52 49.8627 50.3511 50.0627 50.2006C49.2732 50.0625 48.5223 49.7581 47.8624 49.3087C47.7075 49.2121 47.5542 49.0956 47.3923 48.9736C46.7516 48.4665 46.2039 47.8553 45.7738 47.1671C45.7501 47.5771 45.6919 47.9847 45.5994 48.3849C45.5554 48.5835 45.5019 48.7713 45.4388 48.9479C45.1324 49.917 44.5868 50.7952 43.8507 51.505C43.7364 51.6149 43.6146 51.7163 43.4858 51.8092C45.0561 52.1052 46.4546 52.9823 47.3898 54.259Z" fill="#304973"/>
<path d="M19.3196 15.4952L20.5869 18.3995L23.6473 17.1963C23.788 17.1412 23.9489 17.2054 24.0061 17.3384C24.035 17.4045 24.0324 17.4752 24.0061 17.537L22.7388 20.4423L25.798 21.6454C25.9387 21.7006 26.0057 21.853 25.9477 21.9861C25.9188 22.0535 25.8636 22.1026 25.798 22.1281L22.7388 23.3312L24.0061 26.2366C24.0642 26.3702 23.9966 26.5229 23.8565 26.5772C23.7869 26.6046 23.7124 26.6022 23.6474 26.5772L20.5869 25.3741L19.3196 28.2783C19.2615 28.4119 19.1009 28.4755 18.9608 28.4204C18.8897 28.393 18.838 28.3406 18.8112 28.2783L17.5438 25.3741L14.4834 26.5772C14.3427 26.6323 14.1818 26.5682 14.1246 26.4352C14.0957 26.3691 14.0983 26.2983 14.1246 26.2366L15.3919 23.3312L12.3327 22.1281C12.192 22.073 12.125 21.9205 12.1831 21.7875C12.212 21.72 12.2671 21.6709 12.3327 21.6454L15.3919 20.4423L14.1246 17.537C14.0665 17.4034 14.1341 17.2507 14.2742 17.1963C14.3439 17.1689 14.4184 17.1714 14.4834 17.1963L17.5438 18.3995L18.8112 15.4952C18.8692 15.3617 19.0298 15.2981 19.1699 15.3532C19.241 15.3806 19.2927 15.433 19.3196 15.4952ZM32.2075 50.2679C32.1205 50.2306 32.0818 50.1343 32.1211 50.0518C32.1604 49.9692 32.2618 49.9325 32.3487 49.9698C33.0536 50.2717 33.4407 50.7377 33.8258 51.2022C34.3429 51.8253 34.8571 52.4445 36.203 52.5743C36.2975 52.5828 36.3665 52.6629 36.3576 52.7525C36.3486 52.8422 36.2643 52.9078 36.1698 52.8993C34.6768 52.755 34.1179 52.0815 33.5552 51.4046C33.1955 50.9716 32.8355 50.5367 32.2075 50.2679ZM14.8668 31.5452L15.1575 31.9941L15.702 31.871C15.8505 31.8375 15.9987 31.9247 16.0339 32.0657C16.0443 32.1082 16.0435 32.151 16.0325 32.1907L15.9033 32.703L16.3797 32.9814C16.5094 33.0573 16.5502 33.2186 16.4701 33.3417C16.4459 33.379 16.4129 33.4092 16.3757 33.4303L15.9028 33.7062L16.0325 34.2232C16.0677 34.3641 15.9759 34.5048 15.8274 34.5383C15.7826 34.5481 15.7375 34.5473 15.6957 34.5369L15.156 34.4143L14.8628 34.8665C14.7828 34.9897 14.6129 35.0283 14.4832 34.9524C14.4439 34.9293 14.4122 34.8981 14.3899 34.8627L14.0993 34.4138L13.5548 34.5369C13.4063 34.5704 13.2581 34.4831 13.2228 34.3422C13.2124 34.2997 13.2133 34.2569 13.2243 34.2171L13.3534 33.7048L12.877 33.4265C12.7473 33.3505 12.7066 33.1893 12.7866 33.0661C12.8109 33.0288 12.8438 32.9987 12.8811 32.9776L13.354 32.7017L13.2243 32.1847C13.189 32.0438 13.2809 31.9031 13.4294 31.8696C13.4742 31.8597 13.5192 31.8606 13.5611 31.871L14.1007 31.9936L14.3939 31.5413C14.474 31.4182 14.6438 31.3795 14.7735 31.4555C14.8128 31.4785 14.8446 31.5098 14.8668 31.5452ZM14.7923 32.4304L14.6294 32.1795L14.4699 32.4257C14.4107 32.5228 14.2891 32.5752 14.1683 32.5483L13.8659 32.4795L13.9364 32.7606C13.9661 32.8695 13.9199 32.9879 13.8136 33.0502L13.5493 33.2049L13.8087 33.3562C13.9109 33.4125 13.9661 33.5279 13.9378 33.6426L13.8653 33.9297L14.1614 33.8628C14.2761 33.8345 14.4009 33.8784 14.4665 33.9793L14.6294 34.2303L14.7888 33.984C14.8481 33.8869 14.9697 33.8345 15.0904 33.8614L15.3929 33.9302L15.3224 33.6491C15.2926 33.5403 15.3389 33.4218 15.4452 33.3595L15.7095 33.2049L15.4501 33.0535C15.3478 32.9973 15.2927 32.8818 15.321 32.7672L15.3935 32.48L15.0974 32.547C14.9827 32.5752 14.8579 32.5313 14.7923 32.4304ZM33.7141 35.1517L34.0047 35.6007L34.5492 35.4776C34.6977 35.4441 34.8459 35.5313 34.8811 35.6723C34.8915 35.7148 34.8907 35.7575 34.8797 35.7973L34.7506 36.3096L35.2269 36.588C35.3566 36.6639 35.3974 36.8252 35.3174 36.9483C35.2931 36.9856 35.2602 37.0158 35.2229 37.0369L34.75 37.3128L34.8797 37.8297C34.915 37.9707 34.8231 38.1114 34.6746 38.1448C34.6298 38.1547 34.5848 38.1539 34.5429 38.1435L34.0033 38.0209L33.71 38.4731C33.63 38.5962 33.4602 38.6349 33.3305 38.559C33.2912 38.5359 33.2594 38.5047 33.2371 38.4693L32.9465 38.0203L32.402 38.1435C32.2535 38.1769 32.1053 38.0897 32.0701 37.9488C32.0597 37.9063 32.0605 37.8635 32.0715 37.8237L32.2006 37.3114L31.7243 37.0331C31.5946 36.9571 31.5538 36.7959 31.6338 36.6727C31.6581 36.6354 31.691 36.6053 31.7283 36.5841L32.2012 36.3082L32.0715 35.7913C32.0363 35.6503 32.1281 35.5096 32.2766 35.4762C32.3214 35.4663 32.3664 35.4671 32.4083 35.4776L32.948 35.6001L33.2412 35.1479C33.3212 35.0248 33.4911 34.9861 33.6208 35.0621C33.66 35.0851 33.6918 35.1164 33.7141 35.1517ZM33.6395 36.037L33.4766 35.7861L33.3172 36.0323C33.2579 36.1294 33.1363 36.1818 33.0156 36.1549L32.7131 36.0861L32.7836 36.3672C32.8133 36.476 32.7671 36.5945 32.6608 36.6568L32.3965 36.8114L32.6559 36.9628C32.7582 37.0191 32.8133 37.1345 32.785 37.2491L32.7125 37.5363L33.0086 37.4694C33.1233 37.4411 33.2481 37.485 33.3137 37.5859L33.4766 37.8368L33.6361 37.5906C33.6953 37.4935 33.8169 37.4411 33.9377 37.468L34.2401 37.5368L34.1696 37.2557C34.1399 37.1468 34.1861 37.0284 34.2924 36.9661L34.5567 36.8114L34.2973 36.6601C34.1951 36.6038 34.1399 36.4884 34.1682 36.3738L34.2407 36.0866L33.9446 36.1535C33.8299 36.1818 33.7051 36.1379 33.6395 36.037ZM42.9503 28.4448L43.2409 28.8938L43.7854 28.7706C43.9339 28.7372 44.0821 28.8244 44.1174 28.9654C44.1278 29.0079 44.1269 29.0506 44.1159 29.0904L43.9868 29.6027L44.4632 29.8811C44.5929 29.957 44.6336 30.1183 44.5536 30.2414C44.5293 30.2787 44.4964 30.3089 44.4591 30.33L43.9862 30.6059L44.1159 31.1228C44.1512 31.2638 44.0593 31.4045 43.9108 31.4379C43.8661 31.4478 43.821 31.447 43.7791 31.4366L43.2395 31.314L42.9463 31.7662C42.8662 31.8893 42.6964 31.928 42.5667 31.8521C42.5274 31.829 42.4956 31.7978 42.4734 31.7624L42.1828 31.3134L41.6382 31.4366C41.4897 31.47 41.3415 31.3828 41.3063 31.2419C41.2959 31.1994 41.2967 31.1566 41.3077 31.1168L41.4369 30.6045L40.9605 30.3262C40.8308 30.2502 40.7901 30.0889 40.8701 29.9658C40.8943 29.9285 40.9273 29.8983 40.9645 29.8772L41.4374 29.6013L41.3077 29.0844C41.2725 28.9434 41.3643 28.8027 41.5128 28.7693C41.5576 28.7594 41.6027 28.7602 41.6446 28.7707L42.1842 28.8932L42.4774 28.441C42.5574 28.3179 42.7273 28.2792 42.857 28.3552C42.8963 28.3782 42.928 28.4095 42.9503 28.4448ZM42.8758 29.3301L42.7128 29.0791L42.5534 29.3254C42.4942 29.4225 42.3725 29.4749 42.2518 29.448L41.9493 29.3792L42.0198 29.6603C42.0496 29.7691 42.0033 29.8876 41.897 29.9499L41.6327 30.1045L41.8921 30.2559C41.9944 30.3121 42.0496 30.4276 42.0213 30.5422L41.9487 30.8294L42.2448 30.7624C42.3595 30.7342 42.4843 30.7781 42.5499 30.879L42.7128 31.1299L42.8723 30.8837C42.9315 30.7866 43.0531 30.7342 43.1739 30.7611L43.4763 30.8299L43.4059 30.5488C43.3761 30.4399 43.4223 30.3215 43.5286 30.2592L43.793 30.1045L43.5335 29.9532C43.4313 29.8969 43.3761 29.7815 43.4044 29.6669L43.4769 29.3797L43.1808 29.4466C43.0661 29.4749 42.9413 29.431 42.8758 29.3301ZM34.9154 26.6422L35.206 27.0912L35.7506 26.968C35.899 26.9346 36.0472 27.0218 36.0825 27.1627C36.0929 27.2052 36.092 27.248 36.081 27.2878L35.9519 27.8001L36.4283 28.0784C36.558 28.1544 36.5987 28.3157 36.5187 28.4388C36.4944 28.4761 36.4615 28.5063 36.4242 28.5274L35.9513 28.8033L36.081 29.3202C36.1163 29.4612 36.0244 29.6019 35.8759 29.6353C35.8312 29.6452 35.7861 29.6444 35.7442 29.6339L35.2046 29.5114L34.9114 29.9636C34.8314 30.0867 34.6615 30.1254 34.5318 30.0494C34.4925 30.0264 34.4607 29.9951 34.4385 29.9598L34.1479 29.5108L33.6033 29.634C33.4548 29.6674 33.3066 29.5802 33.2714 29.4392C33.261 29.3967 33.2619 29.354 33.2728 29.3142L33.402 28.8019L32.9256 28.5235C32.7959 28.4476 32.7552 28.2863 32.8352 28.1632C32.8594 28.1259 32.8924 28.0957 32.9296 28.0746L33.4025 27.7987L33.2728 27.2818C33.2376 27.1408 33.3295 27.0001 33.4779 26.9667C33.5227 26.9568 33.5678 26.9576 33.6097 26.968L34.1493 27.0906L34.4425 26.6384C34.5225 26.5153 34.6924 26.4766 34.8221 26.5525C34.8614 26.5756 34.8932 26.6068 34.9154 26.6422ZM34.8409 27.5275L34.6779 27.2765L34.5185 27.5228C34.4593 27.6199 34.3376 27.6723 34.2169 27.6454L33.9144 27.5765L33.9849 27.8576C34.0147 27.9665 33.9685 28.085 33.8621 28.1472L33.5978 28.3019L33.8572 28.4533C33.9595 28.5095 34.0147 28.625 33.9864 28.7396L33.9139 29.0267L34.21 28.9598C34.3246 28.9316 34.4494 28.9755 34.515 29.0764L34.6779 29.3273L34.8374 29.081C34.8966 28.984 35.0182 28.9316 35.139 28.9585L35.4414 29.0273L35.371 28.7462C35.3412 28.6373 35.3874 28.5188 35.4937 28.4566L35.7581 28.3019L35.4986 28.1505C35.3964 28.0943 35.3412 27.9789 35.3695 27.8642L35.442 27.5771L35.1459 27.644C35.0312 27.6723 34.9064 27.6284 34.8409 27.5275ZM39.3301 19.8658L39.6207 20.3147L40.1652 20.1916C40.3137 20.1582 40.4619 20.2454 40.4972 20.3863C40.5076 20.4288 40.5067 20.4716 40.4957 20.5114L40.3666 21.0237L40.8429 21.302C40.9727 21.378 41.0134 21.5392 40.9334 21.6624C40.9091 21.6997 40.8762 21.7298 40.8389 21.751L40.366 22.0268L40.4957 22.5438C40.531 22.6848 40.4391 22.8254 40.2906 22.8589C40.2458 22.8688 40.2008 22.868 40.1589 22.8575L39.6193 22.7349L39.326 23.1872C39.246 23.3103 39.0762 23.349 38.9465 23.273C38.9072 23.25 38.8754 23.2187 38.8531 23.1833L38.5625 22.7344L38.018 22.8575C37.8695 22.891 37.7213 22.8038 37.6861 22.6628C37.6757 22.6203 37.6765 22.5775 37.6875 22.5378L37.8166 22.0255L37.3403 21.7471C37.2106 21.6712 37.1698 21.5099 37.2499 21.3868C37.2741 21.3495 37.3071 21.3193 37.3443 21.2982L37.8172 21.0223L37.6875 20.5054C37.6523 20.3644 37.7441 20.2237 37.8926 20.1902C37.9374 20.1804 37.9824 20.1812 38.0243 20.1916L38.564 20.3142L38.8572 19.862C38.9372 19.7388 39.1071 19.7002 39.2368 19.7761C39.2761 19.7992 39.3078 19.8304 39.3301 19.8658ZM39.2555 20.751L39.0926 20.5001L38.9332 20.7464C38.8739 20.8435 38.7523 20.8958 38.6316 20.869L38.3291 20.8001L38.3996 21.0812C38.4293 21.1901 38.3831 21.3086 38.2768 21.3708L38.0125 21.5255L38.2719 21.6769C38.3742 21.7331 38.4293 21.8486 38.401 21.9632L38.3285 22.2503L38.6246 22.1834C38.7393 22.1552 38.8641 22.199 38.9297 22.3L39.0926 22.5509L39.2521 22.3046C39.3113 22.2076 39.4329 22.1552 39.5537 22.182L39.8561 22.2509L39.7856 21.9698C39.7559 21.8609 39.8021 21.7424 39.9084 21.6802L40.1727 21.5255L39.9133 21.3741C39.8111 21.3179 39.7559 21.2025 39.7842 21.0878L39.8567 20.8007L39.5606 20.8676C39.4459 20.8958 39.3211 20.852 39.2555 20.751ZM37.407 51.3625C37.5555 51.3952 37.6471 51.5361 37.6127 51.6771C37.5783 51.818 37.4298 51.905 37.2813 51.8723C37.0852 51.8285 36.9078 51.8062 36.7353 51.7838C36.003 51.6908 35.3418 51.6074 34.1712 50.375C33.8055 49.9897 33.5403 49.7124 33.2407 49.5081C32.9441 49.3049 32.5948 49.1581 32.0474 49.0227C29.9111 48.4926 28.3078 47.3229 27.3654 46.6356C27.1155 46.4535 26.9139 46.306 26.7767 46.2248C26.6958 46.1771 26.6089 46.1357 26.5179 46.1083C26.4474 46.0874 26.3777 46.0762 26.3107 46.0795C25.9849 46.094 25.6763 46.1738 25.3687 46.2539C25.2052 46.2964 25.0414 46.3392 24.873 46.3732L25.1616 46.9919C25.3121 47.0253 25.4626 47.1065 25.5793 47.2286C25.6975 47.3517 25.783 47.5182 25.8014 47.7181C25.8098 47.8078 25.8049 47.9029 25.7827 48.0019C25.7737 48.042 25.7564 48.0773 25.7324 48.1075L24.7964 49.2733C24.7736 49.3021 24.7453 49.3251 24.7144 49.3413C24.2528 49.5931 23.8729 49.6559 23.6294 49.6035C23.4947 49.5747 23.3899 49.5124 23.3174 49.4247C23.2379 49.3284 23.2041 49.2116 23.2214 49.0827C23.2463 48.8932 23.3948 48.668 23.6865 48.4588C24.0358 48.2092 23.8917 47.9405 23.7328 47.6442C23.7198 47.6193 23.7059 47.5943 23.6686 47.5225L23.3353 46.8895C23.3373 47.2277 23.363 47.5598 23.456 47.8011C23.5326 48.0002 23.5395 48.1911 23.5063 48.3521C23.4606 48.5761 23.3315 48.7549 23.1983 48.8364C23.1908 48.841 23.1824 48.8454 23.1741 48.8495L21.4893 49.7885C21.2299 49.9517 20.987 49.9413 20.8038 49.8428C20.7244 49.7995 20.6588 49.7414 20.61 49.6725C20.5623 49.6056 20.53 49.5283 20.5146 49.4471C20.4774 49.2439 20.5499 49.0165 20.7741 48.8638L21.7444 48.103L21.5546 46.0369L16.6953 44.2841C16.6462 44.2874 16.6069 44.2954 16.5772 44.3083C16.5067 44.339 16.4738 44.4224 16.468 44.5417C16.4596 44.7265 16.5157 44.9703 16.6165 45.2449C16.8733 45.9466 17.4054 46.8078 17.9141 47.4503C18.017 47.58 18.1074 47.6829 18.1883 47.7739C18.5459 48.1776 18.7357 48.3913 18.7123 49.194C18.6979 49.6953 18.372 50.3071 17.8414 50.8759C17.3534 51.3981 16.6858 51.8942 15.9272 52.2362C15.79 52.2979 15.6256 52.2422 15.5606 52.1111C15.4956 51.9809 15.5543 51.8248 15.6924 51.7631C16.3825 51.4519 16.988 51.0024 17.4297 50.5299C17.8777 50.0502 18.1516 49.5582 18.1626 49.18C18.1805 48.5753 18.0378 48.4141 17.7685 48.1099C17.681 48.0109 17.5822 47.899 17.4745 47.7638C16.9368 47.0842 16.3721 46.1688 16.0968 45.4174C15.9746 45.0831 15.907 44.774 15.9188 44.5198C15.9341 44.2 16.0653 43.9581 16.3495 43.8345C16.4613 43.7859 16.591 43.7599 16.741 43.7599C16.7733 43.7599 16.806 43.7656 16.8383 43.7774L21.5023 45.4594L21.2166 42.3527L19.9418 43.7176C19.9265 43.7332 19.9106 43.7472 19.8927 43.759L19.8932 43.7596C19.7219 43.8728 19.5605 43.9189 19.4157 43.9175C19.2661 43.9161 19.1404 43.8665 19.041 43.7851C18.9492 43.7105 18.883 43.6101 18.8443 43.4993C18.7912 43.3479 18.7891 43.1724 18.8443 43.0169C18.8527 42.9939 18.8637 42.9736 18.8767 42.9547L19.4426 42.0581L19.0858 42.1689C18.9408 42.2133 18.7857 42.1382 18.7386 42.0011C18.6918 41.8634 18.7709 41.7161 18.9154 41.6714L20.2315 41.2644L21.0447 40.1656C21.1346 39.752 21.0993 39.3012 21.0647 38.8498C20.9867 37.8354 20.9092 36.8211 22.0379 35.9614C22.013 35.7708 21.8984 35.6337 21.7854 35.4974C21.6831 35.3742 21.5812 35.2522 21.5092 35.0945C21.4546 34.9752 21.4223 34.86 21.4148 34.7407C21.4133 34.7284 21.4127 34.7166 21.4133 34.704C21.4113 34.6168 21.4229 34.5309 21.4491 34.4445C21.5505 33.7304 21.6334 32.9834 21.6901 32.2684C21.7522 31.4888 21.7834 30.7554 21.7764 30.154L21.7218 28.8593C21.6716 28.5357 21.753 28.2793 21.8958 28.1208C21.9752 28.033 22.0731 27.9727 22.1809 27.943C22.2912 27.9129 22.4094 27.9167 22.5267 27.9568C22.724 28.0242 22.9146 28.2006 23.0319 28.5014C23.0383 28.517 23.0423 28.5329 23.0449 28.5491L23.2506 29.5575C23.3768 29.4212 23.5149 29.3156 23.6495 29.2364C23.7787 29.1604 23.9491 29.1977 24.0291 29.3203C24.1092 29.4429 24.0699 29.6047 23.9407 29.6806C23.8096 29.758 23.675 29.8688 23.5661 30.0234C23.4785 30.1474 23.4072 30.3013 23.3659 30.4899L23.2567 33.1772C23.3997 33.1687 23.5398 33.172 23.6744 33.1857C24.1135 32.9578 24.5656 33.0245 24.9437 33.2625C25.1847 33.4134 25.3918 33.6366 25.5408 33.896C25.6885 34.1522 25.7798 34.447 25.7893 34.7431C25.8081 35.3341 25.5117 35.924 24.7112 36.2372C24.5772 36.2896 24.4061 36.2504 24.2129 36.207C24.0962 36.1807 24.0107 36.0307 23.9679 36.04C23.9589 36.0546 23.95 36.0688 23.9402 36.0825C23.8939 36.1947 23.8538 36.2896 23.8194 36.3697C24.4434 37.021 24.34 37.9548 24.2363 38.8886C24.1886 39.3172 24.1409 39.7456 24.1721 40.1238C24.8597 41.0812 24.652 42.2646 24.444 43.4485C24.3481 43.9961 24.2513 44.544 24.2522 45.0468L24.6421 45.8829C24.8389 45.8489 25.0301 45.799 25.2213 45.7494C25.5602 45.6616 25.8985 45.573 26.2844 45.5569C26.4205 45.5508 26.5528 45.5706 26.6793 45.6087C26.8145 45.6487 26.9451 45.711 27.0653 45.7823C27.2343 45.8832 27.4423 46.0346 27.6988 46.2219C28.6079 46.885 30.1555 48.0141 32.1825 48.5173C32.8016 48.6706 33.2054 48.8428 33.5587 49.0847C33.9094 49.3252 34.1911 49.6187 34.5776 50.0256C35.6129 51.116 36.1774 51.1873 36.8028 51.2666C36.9955 51.2907 37.1928 51.3157 37.4026 51.3629L37.407 51.3625ZM21.9707 37.6849C21.9831 37.5406 22.1163 37.4331 22.2682 37.4452C22.4202 37.457 22.5334 37.5834 22.5207 37.7276L22.3924 39.1959C22.3875 39.2492 22.367 39.2969 22.3344 39.3361L20.6328 41.6354C20.597 41.6839 20.5473 41.7165 20.4922 41.7335L20.2437 41.8103L19.3629 43.2041C19.3525 43.2474 19.3546 43.2932 19.3693 43.3338C19.3777 43.3568 19.3886 43.3752 19.4016 43.3862C19.4071 43.3908 19.4141 43.3933 19.4224 43.3941C19.4542 43.3941 19.4984 43.379 19.5576 43.3431L20.8648 41.9433L21.1728 41.5528C21.1916 41.5062 21.2231 41.4656 21.2652 41.4354L22.6146 39.7233L22.9295 38.0838C22.9563 37.9418 23.0993 37.8472 23.249 37.8729C23.3986 37.8984 23.4983 38.0342 23.4711 38.1763L23.1447 39.8766C23.1363 39.9199 23.1178 39.9586 23.0915 39.9907L21.7173 41.7343L22.311 48.1939C22.3185 48.2764 22.2835 48.3617 22.211 48.4179L21.1289 49.2665C21.1199 49.2744 21.1095 49.2821 21.0991 49.2895C21.0688 49.3098 21.0578 49.3367 21.0618 49.3589C21.0633 49.366 21.0659 49.3734 21.0708 49.3792C21.0743 49.3838 21.0771 49.3871 21.0792 49.3877C21.0956 49.3967 21.1323 49.3882 21.1915 49.3504C21.1965 49.3476 21.2005 49.3443 21.2054 49.3419L22.8986 48.3982L22.9026 48.3955C22.9246 48.3818 22.9509 48.3313 22.9667 48.2534C22.9826 48.1747 22.9792 48.0804 22.9399 47.9789C22.7556 47.5012 22.7798 46.8301 22.7998 46.283C22.8053 46.1388 22.8102 46.0033 22.8102 45.8878L22.6914 45.6624C22.6756 45.6322 22.6666 45.6001 22.6631 45.5681L22.4355 43.0716C22.4225 42.9273 22.5349 42.8003 22.6868 42.7877C22.8388 42.7754 22.9725 42.8821 22.9858 43.0263L23.2088 45.4737L23.2903 45.6289C23.3215 45.6623 23.3435 45.7035 23.3539 45.7495L24.1636 47.288C24.1676 47.296 24.1968 47.3509 24.2257 47.4046C24.4949 47.9059 24.7384 48.36 24.018 48.8743C23.8938 48.9629 23.8192 49.0389 23.7874 49.0964C23.9122 49.1069 24.1168 49.0545 24.3941 48.9097L25.2535 47.839C25.257 47.8108 25.257 47.7847 25.255 47.7603C25.248 47.6849 25.2162 47.6235 25.1729 47.5782C25.1316 47.5349 25.0825 47.5075 25.0363 47.4984C25.0267 47.4965 25.0175 47.4951 25.01 47.4951C24.8927 47.5088 24.774 47.4493 24.7243 47.3405L23.7291 45.2082C23.7146 45.1767 23.7068 45.1427 23.7063 45.1059C23.6979 44.5371 23.8007 43.9486 23.9044 43.3609C24.0971 42.264 24.2895 41.1673 23.6947 40.3788C23.6623 40.3406 23.6401 40.2935 23.6346 40.2405C23.5864 39.793 23.6395 39.3133 23.6927 38.8337C23.7707 38.1286 23.8493 37.4235 23.5699 36.9302C23.5679 36.9381 23.5659 36.9466 23.563 36.9557C23.5263 37.0958 23.3772 37.1816 23.2296 37.1471C23.082 37.1123 22.9916 36.9708 23.028 36.8306C23.0826 36.6208 23.084 36.6184 23.1308 36.5514C23.1447 36.5317 23.1686 36.4971 23.2386 36.343C23.2426 36.3318 23.2475 36.3213 23.253 36.3109C23.2966 36.2133 23.3564 36.0737 23.4387 35.8732C23.4408 35.868 23.4428 35.8628 23.4457 35.8576C23.463 35.8189 23.4835 35.7855 23.5072 35.7572C23.9186 35.0752 23.5956 34.1984 23.4535 33.8117C23.4382 33.7698 23.4237 33.7305 23.4113 33.6938C23.1574 33.6938 22.8902 33.7423 22.6501 33.8597C22.3878 33.9875 22.1552 34.2012 22.0047 34.5294C22.0007 34.5385 21.9972 34.5472 21.9938 34.5558C21.9862 34.6101 21.9779 34.6652 21.9695 34.7195C21.975 34.7686 21.9929 34.8237 22.0206 34.8854C22.0663 34.9863 22.1434 35.0787 22.2214 35.1717C22.4201 35.4103 22.6218 35.6519 22.5961 36.0984C22.592 36.1815 22.5464 36.2544 22.4794 36.2988C21.4807 37.0039 21.5498 37.9075 21.6194 38.8112C21.6332 38.99 21.6471 39.1682 21.6532 39.347L21.8493 39.0816L21.9715 37.6832L21.9707 37.6849ZM22.846 30.3125L22.5097 28.6637C22.4566 28.5346 22.3965 28.4666 22.3442 28.4482C22.3402 28.4468 22.3373 28.4463 22.3352 28.4468C22.3303 28.4482 22.3248 28.4529 22.3179 28.4605C22.2688 28.5148 22.2448 28.6256 22.2711 28.7888C22.2731 28.8006 22.2746 28.8124 22.2752 28.8242L22.3298 30.1334V30.1413C22.3373 30.7691 22.3064 31.52 22.2434 32.3071C22.211 32.7174 22.1694 33.1399 22.1212 33.5612C22.2096 33.4984 22.3014 33.4438 22.3965 33.3975C22.4973 33.3484 22.6001 33.3083 22.705 33.2762L22.8197 30.4468C22.8203 30.4331 22.8217 30.4194 22.8246 30.4063C22.831 30.3747 22.8379 30.344 22.8454 30.3138L22.846 30.3125ZM23.9125 33.6621L23.9492 33.6503C23.9631 33.6432 23.9721 33.6399 23.9735 33.6424C24.1191 34.0375 24.4242 34.8663 24.1538 35.6581C24.2179 35.6704 24.2829 35.6849 24.345 35.6995C24.4464 35.7225 24.4776 35.7664 24.5065 35.7546C25.053 35.541 25.2561 35.1485 25.2437 34.7585C25.2368 34.5476 25.1706 34.3345 25.0623 34.1472C24.956 33.9624 24.8104 33.8044 24.644 33.6996C24.4253 33.562 24.1636 33.5252 23.9131 33.6629L23.9125 33.6621ZM23.8221 33.7197C23.7048 33.8055 23.8822 33.6843 23.9492 33.6495L23.9125 33.6613C23.9056 33.6651 23.8995 33.6684 23.8926 33.6725C23.8877 33.6758 23.8831 33.6791 23.8773 33.6816C23.8585 33.6928 23.8406 33.7052 23.8221 33.7189L23.8221 33.7197ZM20.8002 18.8843L21.2199 19.8464L22.2333 20.2449L23.2467 17.9234L20.8013 18.8855L20.8002 18.8843ZM21.5174 20.529L21.813 21.2067L22.0221 20.7276L21.5174 20.529ZM21.1563 21.0671L20.7981 20.246L19.0678 19.5651L17.3374 20.246L16.6201 21.8887L17.3374 23.5314L19.0678 24.2123L20.7981 23.5314L21.5154 21.8887L21.1566 21.0662L21.1563 21.0671ZM20.5006 19.564L20.2914 19.0848L19.7868 19.2834L20.5006 19.564ZM20.0808 18.6019L19.0675 16.2805L18.0541 18.6019L19.0675 19.0004L20.0808 18.6019ZM22.1108 21.8893L22.5305 22.8513L24.9759 21.8893L22.5305 20.9272L22.1108 21.8893ZM23.2455 25.8557L22.2321 23.5342L21.2188 23.9327L20.799 24.8947L23.2444 25.8568L23.2455 25.8557ZM22.0218 23.0513L21.8127 22.5721L21.5172 23.2498L22.0218 23.0513ZM20.0808 25.1769L19.0675 24.7784L18.0541 25.1769L19.0675 27.4983L20.0808 25.1769ZM18.3484 24.4959L17.6346 24.2154L17.8437 24.6945L18.3484 24.4959ZM19.7867 24.4959L20.2914 24.6945L20.5005 24.2154L19.7867 24.4959ZM16.9161 23.9324L15.9028 23.5339L14.8894 25.8554L17.3347 24.8933L16.915 23.9313L16.9161 23.9324ZM13.1592 21.8898L15.6046 22.8518L16.0243 21.8898L15.6046 20.9277L13.1592 21.8898ZM16.1133 23.0515L16.618 23.25L16.3225 22.5724L16.1133 23.0515ZM15.9027 20.2457L16.9161 19.8472L17.3358 18.8852L14.8905 17.9231L15.9039 20.2446L15.9027 20.2457ZM17.6351 19.5647L18.349 19.2842L17.8443 19.0856L17.6351 19.5647ZM16.6186 20.5298L16.1139 20.7284L16.3231 21.2075L16.6186 20.5298Z" fill="#304973"/>
</svg>
