<svg width="29" height="29" viewBox="0 0 29 29" fill="none" xmlns="http://www.w3.org/2000/svg">
<path d="M26.68 0H2.32C1.0387 0 0 1.0387 0 2.32V26.68C0 27.9613 1.0387 29 2.32 29H26.68C27.9613 29 29 27.9613 29 26.68V2.32C29 1.0387 27.9613 0 26.68 0Z" fill="#7697AA"/>
<path d="M6.81842 22.62L7.6422 18.8077C6.58341 17.1431 6.17039 15.1506 6.48057 13.204C6.79076 11.2575 7.80291 9.49066 9.32704 8.23501C10.8512 6.97937 12.7826 6.32125 14.759 6.38412C16.7353 6.44699 18.6207 7.22651 20.0614 8.57646C21.5022 9.92635 22.3993 11.7539 22.5843 13.7162C22.7694 15.6786 22.2298 17.6408 21.0667 19.2347C19.9036 20.8286 18.197 21.9448 16.267 22.3737C14.3371 22.8026 12.3164 22.5148 10.5842 21.5643L6.81842 22.62Z" fill="white"/>
<path d="M17.0296 15.529C16.8562 15.4196 16.6829 15.3649 16.5096 15.5837L15.8163 16.4588C15.6429 16.5683 15.5274 16.623 15.2963 16.5135C14.4297 16.076 13.2164 15.5837 12.1765 13.9428C12.1187 13.724 12.2342 13.6146 12.3498 13.5052L12.8697 12.7395C12.9853 12.6301 12.9275 12.5207 12.8697 12.4113L12.1765 10.8251C12.0031 10.3875 11.8298 10.4422 11.6565 10.4422H11.1943C11.0787 10.4422 10.8476 10.4969 10.6165 10.7157C9.34548 11.919 9.86545 13.6146 10.7899 14.7086C10.9632 14.9273 12.1187 16.8964 14.603 17.9357C16.4518 18.7015 16.8562 18.592 17.3762 18.4826C18.0117 18.4279 18.6472 17.9357 18.9361 17.4434C18.9939 17.2793 19.2828 16.5683 19.0517 16.4588" fill="#7697AA"/>
</svg>
